<?xml version="1.0" encoding="utf-8"?>
<!-- Generator: Adobe Illustrator 16.0.3, SVG Export Plug-In . SVG Version: 6.00 Build 0)  -->
<!DOCTYPE svg PUBLIC "-//W3C//DTD SVG 1.1//EN" "http://www.w3.org/Graphics/SVG/1.1/DTD/svg11.dtd">
<svg version="1.1" id="all" xmlns="http://www.w3.org/2000/svg" xmlns:xlink="http://www.w3.org/1999/xlink" x="0px" y="0px"
	 width="595.279px" height="841.89px" viewBox="0 0 595.279 841.89" enable-background="new 0 0 595.279 841.89"
	 xml:space="preserve">
<g id="middle_x5F_b1">
	<circle fill="none" stroke="#000000" stroke-width="0.25" cx="189.92" cy="592.44" r="5.952"/>
	<circle fill="none" stroke="#000000" stroke-width="0.25" cx="18.426" cy="592.442" r="5.952"/>
	<circle fill="none" stroke="#000000" stroke-width="0.25" cx="361.418" cy="592.443" r="5.953"/>
	<path fill="none" stroke="#000000" stroke-width="0.25" d="M365.668,603.779H14.173c-4.678,0-8.504-3.826-8.504-8.504v-14.174
		h368.502v14.174C374.172,599.953,370.344,603.779,365.668,603.779z"/>
</g>
<g id="middle_x5F_b2">
	<circle fill="none" stroke="#000000" stroke-width="0.25" cx="189.92" cy="623.621" r="5.953"/>
	<circle fill="none" stroke="#000000" stroke-width="0.25" cx="18.426" cy="623.624" r="5.952"/>
	<circle fill="none" stroke="#000000" stroke-width="0.25" cx="361.418" cy="623.623" r="5.953"/>
	<path fill="none" stroke="#000000" stroke-width="0.25" d="M365.668,634.958H14.173c-4.678,0-8.504-3.826-8.504-8.504v-14.172
		h368.502v14.172C374.172,631.132,370.344,634.958,365.668,634.958z"/>
</g>
<g id="middle_x5F_b3">
	<circle fill="none" stroke="#000000" stroke-width="0.25" cx="189.92" cy="654.802" r="5.953"/>
	<circle fill="none" stroke="#000000" stroke-width="0.25" cx="18.426" cy="654.805" r="5.952"/>
	<circle fill="none" stroke="#000000" stroke-width="0.25" cx="361.418" cy="654.804" r="5.953"/>
	<path fill="none" stroke="#000000" stroke-width="0.25" d="M365.668,666.14H14.173c-4.678,0-8.504-3.824-8.504-8.504v-14.172
		h368.502v14.172C374.172,662.314,370.344,666.14,365.668,666.14z"/>
</g>
<g id="middle_x5F_b4">
	<circle fill="none" stroke="#000000" stroke-width="0.25" cx="189.92" cy="685.983" r="5.952"/>
	<circle fill="none" stroke="#000000" stroke-width="0.25" cx="18.426" cy="685.985" r="5.952"/>
	<circle fill="none" stroke="#000000" stroke-width="0.25" cx="361.418" cy="685.986" r="5.953"/>
	<path fill="none" stroke="#000000" stroke-width="0.25" d="M365.668,697.322H14.173c-4.678,0-8.504-3.826-8.504-8.504v-14.174
		h368.502v14.174C374.172,693.496,370.344,697.322,365.668,697.322z"/>
</g>
<g id="middle_x5F_r4">
	<circle fill="none" stroke="#000000" stroke-width="0.25" cx="486.852" cy="327.401" r="5.952"/>
	<circle fill="none" stroke="#000000" stroke-width="0.25" cx="488.269" cy="446.458" r="5.952"/>
	<path fill="none" stroke="#000000" stroke-width="0.25" d="M456.378,314.646h34.726c4.677,0,8.504,3.826,8.504,8.504v134.648
		h-22.677V337.323h-20.553V314.646z"/>
</g>
<g id="middle_x5F_r3">
	<circle fill="none" stroke="#000000" stroke-width="0.25" cx="457.795" cy="476.223" r="5.952"/>
	<circle fill="none" stroke="#000000" stroke-width="0.25" cx="456.378" cy="357.167" r="5.952"/>
	<path fill="none" stroke="#000000" stroke-width="0.25" d="M488.269,488.98h-34.726c-4.678,0-8.505-3.826-8.505-8.506V345.827
		h22.678V466.3h20.553V488.98z"/>
</g>
<g id="middle_x5F_r2">
	<circle fill="none" stroke="#000000" stroke-width="0.25" cx="424.489" cy="327.401" r="5.952"/>
	<circle fill="none" stroke="#000000" stroke-width="0.25" cx="425.906" cy="446.458" r="5.952"/>
	<path fill="none" stroke="#000000" stroke-width="0.25" d="M394.016,314.646h34.726c4.678,0,8.504,3.826,8.504,8.504v134.648
		h-22.677V337.323h-20.553V314.646z"/>
</g>
<g id="middle_x5F_r1">
	<circle fill="none" stroke="#000000" stroke-width="0.25" cx="395.433" cy="476.223" r="5.952"/>
	<circle fill="none" stroke="#000000" stroke-width="0.25" cx="394.016" cy="357.167" r="5.952"/>
	<path fill="none" stroke="#000000" stroke-width="0.25" d="M425.906,488.98H391.18c-4.677,0-8.504-3.826-8.504-8.506V345.827
		h22.677V466.3h20.553V488.98z"/>
</g>
<g id="middle_x5F_l4">
	<circle fill="none" stroke="#000000" stroke-width="0.25" cx="486.142" cy="291.97" r="5.952"/>
	<circle fill="none" stroke="#000000" stroke-width="0.25" cx="487.56" cy="172.915" r="5.952"/>
	<path fill="none" stroke="#000000" stroke-width="0.25" d="M498.897,161.575v134.648c0,4.677-3.827,8.504-8.504,8.504h-36.852
		v-22.678h22.679V161.575H498.897z"/>
</g>
<g id="middle_x5F_l3">
	<circle fill="none" stroke="#000000" stroke-width="0.25" cx="457.795" cy="143.15" r="5.952"/>
	<circle fill="none" stroke="#000000" stroke-width="0.25" cx="456.377" cy="262.206" r="5.952"/>
	<path fill="none" stroke="#000000" stroke-width="0.25" d="M445.038,273.546V138.897c0-4.677,3.827-8.504,8.505-8.504h36.851
		v22.678h-22.678v120.475H445.038z"/>
</g>
<g id="middle_x5F_l2">
	<circle fill="none" stroke="#000000" stroke-width="0.25" cx="423.779" cy="291.97" r="5.952"/>
	<circle fill="none" stroke="#000000" stroke-width="0.25" cx="425.197" cy="172.915" r="5.952"/>
	<path fill="none" stroke="#000000" stroke-width="0.25" d="M436.534,161.575v134.648c0,4.677-3.827,8.504-8.504,8.504H391.18
		v-22.678h22.678V161.575H436.534z"/>
</g>
<g id="middle_x5F_l1">
	<circle fill="none" stroke="#000000" stroke-width="0.25" cx="395.433" cy="143.15" r="5.952"/>
	<circle fill="none" stroke="#000000" stroke-width="0.25" cx="394.015" cy="262.206" r="5.952"/>
	<path fill="none" stroke="#000000" stroke-width="0.25" d="M382.677,273.546V138.897c0-4.677,3.827-8.504,8.504-8.504h36.851
		v22.678h-22.678v120.475H382.677z"/>
</g>
<g id="middle_x5F_t4">
	<polygon fill="none" stroke="#000000" stroke-width="0.25" points="492.388,99.212 458.638,99.212 382.677,99.212 382.677,121.89 
		458.638,121.89 492.388,121.89 498.898,121.89 498.898,99.212 	"/>
	<circle fill="none" stroke="#000000" stroke-width="0.25" cx="394.016" cy="110.551" r="5.952"/>
	<circle fill="none" stroke="#000000" stroke-width="0.25" cx="487.559" cy="110.551" r="5.953"/>
</g>
<g id="middle_x5F_t3">
	<polygon fill="none" stroke="#000000" stroke-width="0.25" points="492.388,68.031 458.638,68.031 382.677,68.031 382.677,90.709 
		458.638,90.709 492.388,90.709 498.898,90.709 498.898,68.031 	"/>
	<circle fill="none" stroke="#000000" stroke-width="0.25" cx="394.016" cy="79.37" r="5.952"/>
	<circle fill="none" stroke="#000000" stroke-width="0.25" cx="487.559" cy="79.37" r="5.953"/>
</g>
<g id="middle_x5F_t2">
	<polygon fill="none" stroke="#000000" stroke-width="0.25" points="492.388,36.851 458.638,36.851 382.677,36.851 382.677,59.528 
		458.638,59.528 492.388,59.528 498.898,59.528 498.898,36.851 	"/>
	<circle fill="none" stroke="#000000" stroke-width="0.25" cx="394.016" cy="48.189" r="5.952"/>
	<circle fill="none" stroke="#000000" stroke-width="0.25" cx="487.559" cy="48.189" r="5.953"/>
</g>
<g id="middle_x5F_t1">
	<polygon fill="none" stroke="#000000" stroke-width="0.25" points="492.388,5.669 458.638,5.669 382.677,5.669 382.677,28.347 
		458.638,28.347 492.388,28.347 498.898,28.347 498.898,5.669 	"/>
	<circle fill="none" stroke="#000000" stroke-width="0.25" cx="394.016" cy="17.008" r="5.952"/>
	<circle fill="none" stroke="#000000" stroke-width="0.25" cx="487.559" cy="17.008" r="5.953"/>
</g>
<g id="tilt">
	<circle fill="none" stroke="#000000" stroke-width="0.25" cx="165.826" cy="555.591" r="2.977"/>
	<circle fill="none" stroke="#000000" stroke-width="0.25" cx="259.37" cy="555.591" r="2.977"/>
	<circle fill="none" stroke="#000000" stroke-width="0.25" cx="361.418" cy="557.009" r="2.977"/>
	<circle fill="none" stroke="#000000" stroke-width="0.25" cx="18.425" cy="557.009" r="2.977"/>
	<path fill="none" stroke="#000000" stroke-width="0.25" d="M374.172,552.755c0-4.676-3.826-8.502-8.504-8.502H14.174
		c-4.677,0-8.504,3.826-8.504,8.502l-0.001,19.844h368.502L374.172,552.755L374.172,552.755z"/>
</g>
<g id="bottom">
	<circle fill="none" stroke="#000000" stroke-width="0.25" cx="165.825" cy="286.299" r="2.977"/>
	<circle fill="none" stroke="#000000" stroke-width="0.25" cx="259.369" cy="286.299" r="2.977"/>
	<circle fill="none" stroke="#000000" stroke-width="0.25" cx="189.919" cy="522.993" r="2.978"/>
	<circle fill="none" stroke="#000000" stroke-width="0.25" cx="18.426" cy="522.991" r="2.978"/>
	<circle fill="none" stroke="#000000" stroke-width="0.25" cx="361.415" cy="522.991" r="2.978"/>
	<path fill="none" stroke="#000000" stroke-width="0.25" d="M374.17,283.464c0-4.677-3.827-8.504-8.504-8.504H14.173
		c-4.677,0-8.504,3.827-8.504,8.504v242.364c0,4.676,3.827,8.504,8.504,8.504h351.493c4.677,0,8.504-3.828,8.504-8.504V283.464z"/>
	<circle fill="none" stroke="#000000" stroke-width="0.25" cx="361.414" cy="287.717" r="2.977"/>
	<circle fill="none" stroke="#000000" stroke-width="0.25" cx="362.831" cy="406.774" r="2.977"/>
	<circle fill="none" stroke="#000000" stroke-width="0.25" cx="18.425" cy="287.717" r="2.977"/>
	<circle fill="none" stroke="#000000" stroke-width="0.25" cx="17.008" cy="406.774" r="2.977"/>
</g>
<g id="top">
	<polygon fill="none" stroke="#000000" stroke-width="0.25" stroke-linecap="round" stroke-linejoin="round" points="77.389,36.706 
		75.121,36.706 75.121,35.005 35.436,35.005 35.436,36.706 33.168,36.706 33.168,72.989 35.436,72.989 35.436,74.69 75.121,74.69 
		75.121,72.989 77.389,72.989 	"/>
	<polygon fill="none" stroke="#000000" stroke-width="0.25" stroke-linecap="round" stroke-linejoin="round" points="
		131.389,36.706 129.121,36.706 129.121,35.005 89.436,35.005 89.436,36.706 87.168,36.706 87.168,72.989 89.436,72.989 
		89.436,74.69 129.121,74.69 129.121,72.989 131.389,72.989 	"/>
	<polygon fill="none" stroke="#000000" stroke-width="0.25" stroke-linecap="round" stroke-linejoin="round" points="
		185.389,36.706 183.121,36.706 183.121,35.005 143.436,35.005 143.436,36.706 141.168,36.706 141.168,72.989 143.436,72.989 
		143.436,74.69 183.121,74.69 183.121,72.989 185.389,72.989 	"/>
	<polygon fill="none" stroke="#000000" stroke-width="0.25" stroke-linecap="round" stroke-linejoin="round" points="
		239.389,36.706 237.121,36.706 237.121,35.005 197.436,35.005 197.436,36.706 195.168,36.706 195.168,72.989 197.436,72.989 
		197.436,74.69 237.121,74.69 237.121,72.989 239.389,72.989 	"/>
	<polygon fill="none" stroke="#000000" stroke-width="0.25" stroke-linecap="round" stroke-linejoin="round" points="
		293.389,36.706 291.12,36.706 291.12,35.005 251.436,35.005 251.436,36.706 249.168,36.706 249.168,72.989 251.436,72.989 
		251.436,74.69 291.12,74.69 291.12,72.989 293.389,72.989 	"/>
	<polygon fill="none" stroke="#000000" stroke-width="0.25" stroke-linecap="round" stroke-linejoin="round" points="
		347.389,36.706 345.119,36.706 345.119,35.005 305.436,35.005 305.436,36.706 303.168,36.706 303.168,72.989 305.436,72.989 
		305.436,74.69 345.119,74.69 345.119,72.989 347.389,72.989 	"/>
	<polygon fill="none" stroke="#000000" stroke-width="0.25" stroke-linecap="round" stroke-linejoin="round" points="77.389,90.706 
		75.121,90.706 75.121,89.006 35.436,89.006 35.436,90.706 33.168,90.706 33.168,126.989 35.436,126.989 35.436,128.69 
		75.121,128.69 75.121,126.989 77.389,126.989 	"/>
	<polygon fill="none" stroke="#000000" stroke-width="0.25" stroke-linecap="round" stroke-linejoin="round" points="
		131.389,90.706 129.121,90.706 129.121,89.006 89.436,89.006 89.436,90.706 87.168,90.706 87.168,126.989 89.436,126.989 
		89.436,128.69 129.121,128.69 129.121,126.989 131.389,126.989 	"/>
	<polygon fill="none" stroke="#000000" stroke-width="0.25" stroke-linecap="round" stroke-linejoin="round" points="
		185.389,90.706 183.121,90.706 183.121,89.006 143.436,89.006 143.436,90.706 141.168,90.706 141.168,126.989 143.436,126.989 
		143.436,128.69 183.121,128.69 183.121,126.989 185.389,126.989 	"/>
	<polygon fill="none" stroke="#000000" stroke-width="0.25" stroke-linecap="round" stroke-linejoin="round" points="
		239.389,90.706 237.121,90.706 237.121,89.006 197.436,89.006 197.436,90.706 195.168,90.706 195.168,126.989 197.436,126.989 
		197.436,128.69 237.121,128.69 237.121,126.989 239.389,126.989 	"/>
	<polygon fill="none" stroke="#000000" stroke-width="0.25" stroke-linecap="round" stroke-linejoin="round" points="
		293.389,90.706 291.12,90.706 291.12,89.006 251.436,89.006 251.436,90.706 249.168,90.706 249.168,126.989 251.436,126.989 
		251.436,128.69 291.12,128.69 291.12,126.989 293.389,126.989 	"/>
	<polygon fill="none" stroke="#000000" stroke-width="0.25" stroke-linecap="round" stroke-linejoin="round" points="
		347.389,90.706 345.119,90.706 345.119,89.006 305.436,89.006 305.436,90.706 303.168,90.706 303.168,126.989 305.436,126.989 
		305.436,128.69 345.119,128.69 345.119,126.989 347.389,126.989 	"/>
	<polygon fill="none" stroke="#000000" stroke-width="0.25" stroke-linecap="round" stroke-linejoin="round" points="
		185.389,144.706 183.121,144.706 183.121,143.006 143.436,143.006 143.436,144.706 141.168,144.706 141.168,180.989 
		143.436,180.989 143.436,182.69 183.121,182.69 183.121,180.989 185.389,180.989 	"/>
	<polygon fill="none" stroke="#000000" stroke-width="0.25" stroke-linecap="round" stroke-linejoin="round" points="
		77.389,144.706 75.121,144.706 75.121,143.006 35.436,143.006 35.436,144.706 33.168,144.706 33.168,180.989 35.436,180.989 
		35.436,182.69 75.121,182.69 75.121,180.989 77.389,180.989 	"/>
	<polygon fill="none" stroke="#000000" stroke-width="0.25" stroke-linecap="round" stroke-linejoin="round" points="
		131.389,144.706 129.121,144.706 129.121,143.006 89.436,143.006 89.436,144.706 87.168,144.706 87.168,180.989 89.436,180.989 
		89.436,182.69 129.121,182.69 129.121,180.989 131.389,180.989 	"/>
	<polygon fill="none" stroke="#000000" stroke-width="0.25" stroke-linecap="round" stroke-linejoin="round" points="
		239.389,144.706 237.121,144.706 237.121,143.006 197.436,143.006 197.436,144.706 195.168,144.706 195.168,180.989 
		197.436,180.989 197.436,182.69 237.121,182.69 237.121,180.989 239.389,180.989 	"/>
	<polygon fill="none" stroke="#000000" stroke-width="0.25" stroke-linecap="round" stroke-linejoin="round" points="
		293.389,144.706 291.12,144.706 291.12,143.006 251.436,143.006 251.436,144.706 249.168,144.706 249.168,180.989 251.436,180.989 
		251.436,182.69 291.12,182.69 291.12,180.989 293.389,180.989 	"/>
	<polygon fill="none" stroke="#000000" stroke-width="0.25" stroke-linecap="round" stroke-linejoin="round" points="
		347.389,144.706 345.119,144.706 345.119,143.006 305.436,143.006 305.436,144.706 303.168,144.706 303.168,180.989 
		305.436,180.989 305.436,182.69 345.119,182.69 345.119,180.989 347.389,180.989 	"/>
	<polygon fill="none" stroke="#000000" stroke-width="0.25" stroke-linecap="round" stroke-linejoin="round" points="
		239.389,198.706 237.121,198.706 237.121,197.006 197.436,197.006 197.436,198.706 195.168,198.706 195.168,234.989 
		197.436,234.989 197.436,236.69 237.121,236.69 237.121,234.989 239.389,234.989 	"/>
	<polygon fill="none" stroke="#000000" stroke-width="0.25" stroke-linecap="round" stroke-linejoin="round" points="
		185.389,198.706 183.121,198.706 183.121,197.006 143.436,197.006 143.436,198.706 141.168,198.706 141.168,234.989 
		143.436,234.989 143.436,236.69 183.121,236.69 183.121,234.989 185.389,234.989 	"/>
	<polygon fill="none" stroke="#000000" stroke-width="0.25" stroke-linecap="round" stroke-linejoin="round" points="
		77.389,198.706 75.121,198.706 75.121,197.006 35.436,197.006 35.436,198.706 33.168,198.706 33.168,234.989 35.436,234.989 
		35.436,236.69 75.121,236.69 75.121,234.989 77.389,234.989 	"/>
	<polygon fill="none" stroke="#000000" stroke-width="0.25" stroke-linecap="round" stroke-linejoin="round" points="
		131.389,198.706 129.121,198.706 129.121,197.006 89.436,197.006 89.436,198.706 87.168,198.706 87.168,234.989 89.436,234.989 
		89.436,236.69 129.121,236.69 129.121,234.989 131.389,234.989 	"/>
	<polygon fill="none" stroke="#000000" stroke-width="0.25" stroke-linecap="round" stroke-linejoin="round" points="
		293.389,198.706 291.12,198.706 291.12,197.006 251.436,197.006 251.436,198.706 249.168,198.706 249.168,234.989 251.436,234.989 
		251.436,236.69 291.12,236.69 291.12,234.989 293.389,234.989 	"/>
	<polygon fill="none" stroke="#000000" stroke-width="0.25" stroke-linecap="round" stroke-linejoin="round" points="
		347.389,198.706 345.119,198.706 345.119,197.006 305.436,197.006 305.436,198.706 303.168,198.706 303.168,234.989 
		305.436,234.989 305.436,236.69 345.119,236.69 345.119,234.989 347.389,234.989 	"/>
	<circle fill="none" stroke="#000000" stroke-width="0.25" cx="165.825" cy="17.008" r="2.977"/>
	<circle fill="none" stroke="#000000" stroke-width="0.25" cx="259.369" cy="17.008" r="2.977"/>
	<circle fill="none" stroke="#000000" stroke-width="0.25" cx="189.92" cy="253.701" r="2.977"/>
	<circle fill="none" stroke="#000000" stroke-width="0.25" cx="18.426" cy="253.701" r="2.977"/>
	<circle fill="none" stroke="#000000" stroke-width="0.25" cx="361.416" cy="253.701" r="2.977"/>
	<path fill="none" stroke="#000000" stroke-width="0.25" d="M374.171,14.173c0-4.677-3.827-8.504-8.505-8.504H14.173
		c-4.677,0-8.504,3.827-8.504,8.504v242.362c0,4.677,3.827,8.504,8.504,8.504h351.493c4.678,0,8.505-3.827,8.505-8.504V14.173z"/>
	<circle fill="none" stroke="#000000" stroke-width="0.25" cx="361.415" cy="18.426" r="2.977"/>
	<circle fill="none" stroke="#000000" stroke-width="0.25" cx="362.832" cy="137.483" r="2.977"/>
	<circle fill="none" stroke="#000000" stroke-width="0.25" cx="18.425" cy="18.426" r="2.977"/>
	<circle fill="none" stroke="#000000" stroke-width="0.25" cx="17.008" cy="137.483" r="2.977"/>
</g>
</svg>
