<?xml version="1.0" encoding="utf-8"?>
<!-- Generator: Adobe Illustrator 16.0.3, SVG Export Plug-In . SVG Version: 6.00 Build 0)  -->
<!DOCTYPE svg PUBLIC "-//W3C//DTD SVG 1.1//EN" "http://www.w3.org/Graphics/SVG/1.1/DTD/svg11.dtd">
<svg version="1.1" id="bottom" xmlns="http://www.w3.org/2000/svg" xmlns:xlink="http://www.w3.org/1999/xlink" x="0px" y="0px"
	 width="595.279px" height="841.89px" viewBox="0 0 595.279 841.89" enable-background="new 0 0 595.279 841.89"
	 xml:space="preserve">
<g id="bottom_1_">
	<circle fill="none" stroke="#000000" stroke-width="0.25" cx="165.825" cy="17.008" r="2.977"/>
	<circle fill="none" stroke="#000000" stroke-width="0.25" cx="259.369" cy="17.008" r="2.977"/>
	<circle fill="none" stroke="#000000" stroke-width="0.25" cx="189.919" cy="253.702" r="2.977"/>
	<circle fill="none" stroke="#000000" stroke-width="0.25" cx="18.426" cy="253.7" r="2.977"/>
	<circle fill="none" stroke="#000000" stroke-width="0.25" cx="361.415" cy="253.7" r="2.977"/>
	<path fill="none" stroke="#000000" stroke-width="0.25" d="M374.17,14.173c0-4.677-3.827-8.504-8.504-8.504H14.173
		c-4.677,0-8.504,3.827-8.504,8.504v242.363c0,4.676,3.827,8.504,8.504,8.504h351.493c4.677,0,8.504-3.828,8.504-8.504V14.173z"/>
	<circle fill="none" stroke="#000000" stroke-width="0.25" cx="361.414" cy="18.426" r="2.977"/>
	<circle fill="none" stroke="#000000" stroke-width="0.25" cx="362.831" cy="137.483" r="2.977"/>
	<circle fill="none" stroke="#000000" stroke-width="0.25" cx="18.425" cy="18.426" r="2.977"/>
	<circle fill="none" stroke="#000000" stroke-width="0.25" cx="17.008" cy="137.483" r="2.977"/>
</g>
</svg>
