<?xml version="1.0" encoding="utf-8"?>
<!-- Generator: Adobe Illustrator 16.0.3, SVG Export Plug-In . SVG Version: 6.00 Build 0)  -->
<!DOCTYPE svg PUBLIC "-//W3C//DTD SVG 1.1//EN" "http://www.w3.org/Graphics/SVG/1.1/DTD/svg11.dtd">
<svg version="1.1" id="middle" xmlns="http://www.w3.org/2000/svg" xmlns:xlink="http://www.w3.org/1999/xlink" x="0px" y="0px"
	 width="595.279px" height="841.89px" viewBox="0 0 595.279 841.89" enable-background="new 0 0 595.279 841.89"
	 xml:space="preserve">
<g id="middle_x5F_b">
	<circle fill="none" stroke="#000000" stroke-width="0.25" cx="189.92" cy="253.701" r="5.953"/>
	<circle fill="none" stroke="#000000" stroke-width="0.25" cx="18.426" cy="253.703" r="5.952"/>
	<circle fill="none" stroke="#000000" stroke-width="0.25" cx="361.418" cy="253.703" r="5.953"/>
	<path fill="none" stroke="#000000" stroke-width="0.25" d="M365.668,265.039H14.173c-4.678,0-8.504-3.826-8.504-8.504v-14.172
		h368.502v14.172C374.172,261.213,370.344,265.039,365.668,265.039z"/>
</g>
<g id="middle_x5F_r">
	<circle fill="none" stroke="#000000" stroke-width="0.25" cx="361.414" cy="18.425" r="5.952"/>
	<circle fill="none" stroke="#000000" stroke-width="0.25" cx="362.831" cy="137.482" r="5.952"/>
	<path fill="none" stroke="#000000" stroke-width="0.25" d="M330.941,5.669h34.727c4.677,0,8.504,3.826,8.504,8.504v134.648h-22.678
		V28.347h-20.553V5.669z"/>
</g>
<g id="middle_x5F_l">
	<circle fill="none" stroke="#000000" stroke-width="0.25" cx="18.425" cy="18.426" r="5.952"/>
	<circle fill="none" stroke="#000000" stroke-width="0.25" cx="17.007" cy="137.482" r="5.952"/>
	<path fill="none" stroke="#000000" stroke-width="0.25" d="M5.669,148.822V14.173c0-4.677,3.827-8.504,8.504-8.504h36.851v22.678
		H28.346v120.475H5.669z"/>
</g>
<g id="middle_x5F_t">
	<polygon fill="none" stroke="#000000" stroke-width="0.25" points="264.199,5.669 230.449,5.669 154.488,5.669 154.488,28.347 
		230.449,28.347 264.199,28.347 270.71,28.347 270.71,5.669 	"/>
	<circle fill="none" stroke="#000000" stroke-width="0.25" cx="165.827" cy="17.008" r="5.952"/>
	<circle fill="none" stroke="#000000" stroke-width="0.25" cx="259.371" cy="17.008" r="5.953"/>
</g>
</svg>
