<?xml version="1.0" encoding="utf-8"?>
<!-- Generator: Adobe Illustrator 16.0.3, SVG Export Plug-In . SVG Version: 6.00 Build 0)  -->
<!DOCTYPE svg PUBLIC "-//W3C//DTD SVG 1.1//EN" "http://www.w3.org/Graphics/SVG/1.1/DTD/svg11.dtd">
<svg version="1.1" id="top_1_" xmlns="http://www.w3.org/2000/svg" xmlns:xlink="http://www.w3.org/1999/xlink" x="0px" y="0px"
	 width="595.279px" height="841.89px" viewBox="0 0 595.279 841.89" enable-background="new 0 0 595.279 841.89"
	 xml:space="preserve">
<g id="top">
	<polygon fill="none" stroke="#000000" stroke-width="0.25" stroke-linecap="round" stroke-linejoin="round" points="77.389,36.706 
		75.121,36.706 75.121,35.005 35.436,35.005 35.436,36.706 33.168,36.706 33.168,72.989 35.436,72.989 35.436,74.69 75.121,74.69 
		75.121,72.989 77.389,72.989 	"/>
	<polygon fill="none" stroke="#000000" stroke-width="0.25" stroke-linecap="round" stroke-linejoin="round" points="
		131.389,36.706 129.121,36.706 129.121,35.005 89.436,35.005 89.436,36.706 87.168,36.706 87.168,72.989 89.436,72.989 
		89.436,74.69 129.121,74.69 129.121,72.989 131.389,72.989 	"/>
	<polygon fill="none" stroke="#000000" stroke-width="0.25" stroke-linecap="round" stroke-linejoin="round" points="
		185.389,36.706 183.121,36.706 183.121,35.005 143.436,35.005 143.436,36.706 141.168,36.706 141.168,72.989 143.436,72.989 
		143.436,74.69 183.121,74.69 183.121,72.989 185.389,72.989 	"/>
	<polygon fill="none" stroke="#000000" stroke-width="0.25" stroke-linecap="round" stroke-linejoin="round" points="
		239.389,36.706 237.121,36.706 237.121,35.005 197.436,35.005 197.436,36.706 195.168,36.706 195.168,72.989 197.436,72.989 
		197.436,74.69 237.121,74.69 237.121,72.989 239.389,72.989 	"/>
	<polygon fill="none" stroke="#000000" stroke-width="0.25" stroke-linecap="round" stroke-linejoin="round" points="
		293.389,36.706 291.12,36.706 291.12,35.005 251.436,35.005 251.436,36.706 249.168,36.706 249.168,72.989 251.436,72.989 
		251.436,74.69 291.12,74.69 291.12,72.989 293.389,72.989 	"/>
	<polygon fill="none" stroke="#000000" stroke-width="0.25" stroke-linecap="round" stroke-linejoin="round" points="
		347.389,36.706 345.119,36.706 345.119,35.005 305.436,35.005 305.436,36.706 303.168,36.706 303.168,72.989 305.436,72.989 
		305.436,74.69 345.119,74.69 345.119,72.989 347.389,72.989 	"/>
	<polygon fill="none" stroke="#000000" stroke-width="0.25" stroke-linecap="round" stroke-linejoin="round" points="77.389,90.706 
		75.121,90.706 75.121,89.006 35.436,89.006 35.436,90.706 33.168,90.706 33.168,126.989 35.436,126.989 35.436,128.69 
		75.121,128.69 75.121,126.989 77.389,126.989 	"/>
	<polygon fill="none" stroke="#000000" stroke-width="0.25" stroke-linecap="round" stroke-linejoin="round" points="
		131.389,90.706 129.121,90.706 129.121,89.006 89.436,89.006 89.436,90.706 87.168,90.706 87.168,126.989 89.436,126.989 
		89.436,128.69 129.121,128.69 129.121,126.989 131.389,126.989 	"/>
	<polygon fill="none" stroke="#000000" stroke-width="0.25" stroke-linecap="round" stroke-linejoin="round" points="
		185.389,90.706 183.121,90.706 183.121,89.006 143.436,89.006 143.436,90.706 141.168,90.706 141.168,126.989 143.436,126.989 
		143.436,128.69 183.121,128.69 183.121,126.989 185.389,126.989 	"/>
	<polygon fill="none" stroke="#000000" stroke-width="0.25" stroke-linecap="round" stroke-linejoin="round" points="
		239.389,90.706 237.121,90.706 237.121,89.006 197.436,89.006 197.436,90.706 195.168,90.706 195.168,126.989 197.436,126.989 
		197.436,128.69 237.121,128.69 237.121,126.989 239.389,126.989 	"/>
	<polygon fill="none" stroke="#000000" stroke-width="0.25" stroke-linecap="round" stroke-linejoin="round" points="
		293.389,90.706 291.12,90.706 291.12,89.006 251.436,89.006 251.436,90.706 249.168,90.706 249.168,126.989 251.436,126.989 
		251.436,128.69 291.12,128.69 291.12,126.989 293.389,126.989 	"/>
	<polygon fill="none" stroke="#000000" stroke-width="0.25" stroke-linecap="round" stroke-linejoin="round" points="
		347.389,90.706 345.119,90.706 345.119,89.006 305.436,89.006 305.436,90.706 303.168,90.706 303.168,126.989 305.436,126.989 
		305.436,128.69 345.119,128.69 345.119,126.989 347.389,126.989 	"/>
	<polygon fill="none" stroke="#000000" stroke-width="0.25" stroke-linecap="round" stroke-linejoin="round" points="
		185.389,144.706 183.121,144.706 183.121,143.006 143.436,143.006 143.436,144.706 141.168,144.706 141.168,180.989 
		143.436,180.989 143.436,182.69 183.121,182.69 183.121,180.989 185.389,180.989 	"/>
	<polygon fill="none" stroke="#000000" stroke-width="0.25" stroke-linecap="round" stroke-linejoin="round" points="
		77.389,144.706 75.121,144.706 75.121,143.006 35.436,143.006 35.436,144.706 33.168,144.706 33.168,180.989 35.436,180.989 
		35.436,182.69 75.121,182.69 75.121,180.989 77.389,180.989 	"/>
	<polygon fill="none" stroke="#000000" stroke-width="0.25" stroke-linecap="round" stroke-linejoin="round" points="
		131.389,144.706 129.121,144.706 129.121,143.006 89.436,143.006 89.436,144.706 87.168,144.706 87.168,180.989 89.436,180.989 
		89.436,182.69 129.121,182.69 129.121,180.989 131.389,180.989 	"/>
	<polygon fill="none" stroke="#000000" stroke-width="0.25" stroke-linecap="round" stroke-linejoin="round" points="
		239.389,144.706 237.121,144.706 237.121,143.006 197.436,143.006 197.436,144.706 195.168,144.706 195.168,180.989 
		197.436,180.989 197.436,182.69 237.121,182.69 237.121,180.989 239.389,180.989 	"/>
	<polygon fill="none" stroke="#000000" stroke-width="0.25" stroke-linecap="round" stroke-linejoin="round" points="
		293.389,144.706 291.12,144.706 291.12,143.006 251.436,143.006 251.436,144.706 249.168,144.706 249.168,180.989 251.436,180.989 
		251.436,182.69 291.12,182.69 291.12,180.989 293.389,180.989 	"/>
	<polygon fill="none" stroke="#000000" stroke-width="0.25" stroke-linecap="round" stroke-linejoin="round" points="
		347.389,144.706 345.119,144.706 345.119,143.006 305.436,143.006 305.436,144.706 303.168,144.706 303.168,180.989 
		305.436,180.989 305.436,182.69 345.119,182.69 345.119,180.989 347.389,180.989 	"/>
	<polygon fill="none" stroke="#000000" stroke-width="0.25" stroke-linecap="round" stroke-linejoin="round" points="
		239.389,198.706 237.121,198.706 237.121,197.006 197.436,197.006 197.436,198.706 195.168,198.706 195.168,234.989 
		197.436,234.989 197.436,236.69 237.121,236.69 237.121,234.989 239.389,234.989 	"/>
	<polygon fill="none" stroke="#000000" stroke-width="0.25" stroke-linecap="round" stroke-linejoin="round" points="
		185.389,198.706 183.121,198.706 183.121,197.006 143.436,197.006 143.436,198.706 141.168,198.706 141.168,234.989 
		143.436,234.989 143.436,236.69 183.121,236.69 183.121,234.989 185.389,234.989 	"/>
	<polygon fill="none" stroke="#000000" stroke-width="0.25" stroke-linecap="round" stroke-linejoin="round" points="
		77.389,198.706 75.121,198.706 75.121,197.006 35.436,197.006 35.436,198.706 33.168,198.706 33.168,234.989 35.436,234.989 
		35.436,236.69 75.121,236.69 75.121,234.989 77.389,234.989 	"/>
	<polygon fill="none" stroke="#000000" stroke-width="0.25" stroke-linecap="round" stroke-linejoin="round" points="
		131.389,198.706 129.121,198.706 129.121,197.006 89.436,197.006 89.436,198.706 87.168,198.706 87.168,234.989 89.436,234.989 
		89.436,236.69 129.121,236.69 129.121,234.989 131.389,234.989 	"/>
	<polygon fill="none" stroke="#000000" stroke-width="0.25" stroke-linecap="round" stroke-linejoin="round" points="
		293.389,198.706 291.12,198.706 291.12,197.006 251.436,197.006 251.436,198.706 249.168,198.706 249.168,234.989 251.436,234.989 
		251.436,236.69 291.12,236.69 291.12,234.989 293.389,234.989 	"/>
	<polygon fill="none" stroke="#000000" stroke-width="0.25" stroke-linecap="round" stroke-linejoin="round" points="
		347.389,198.706 345.119,198.706 345.119,197.006 305.436,197.006 305.436,198.706 303.168,198.706 303.168,234.989 
		305.436,234.989 305.436,236.69 345.119,236.69 345.119,234.989 347.389,234.989 	"/>
	<circle fill="none" stroke="#000000" stroke-width="0.25" cx="165.825" cy="17.008" r="2.977"/>
	<circle fill="none" stroke="#000000" stroke-width="0.25" cx="259.369" cy="17.008" r="2.977"/>
	<circle fill="none" stroke="#000000" stroke-width="0.25" cx="189.92" cy="253.701" r="2.977"/>
	<circle fill="none" stroke="#000000" stroke-width="0.25" cx="18.426" cy="253.701" r="2.977"/>
	<circle fill="none" stroke="#000000" stroke-width="0.25" cx="361.416" cy="253.701" r="2.977"/>
	<path fill="none" stroke="#000000" stroke-width="0.25" d="M374.171,14.173c0-4.677-3.827-8.504-8.505-8.504H14.173
		c-4.677,0-8.504,3.827-8.504,8.504v242.362c0,4.677,3.827,8.504,8.504,8.504h351.493c4.678,0,8.505-3.827,8.505-8.504V14.173z"/>
	<circle fill="none" stroke="#000000" stroke-width="0.25" cx="361.415" cy="18.426" r="2.977"/>
	<circle fill="none" stroke="#000000" stroke-width="0.25" cx="362.832" cy="137.483" r="2.977"/>
	<circle fill="none" stroke="#000000" stroke-width="0.25" cx="18.425" cy="18.426" r="2.977"/>
	<circle fill="none" stroke="#000000" stroke-width="0.25" cx="17.008" cy="137.483" r="2.977"/>
</g>
</svg>
